<svg xmlns="http://www.w3.org/2000/svg" viewBox="0 0 325.91 160.16"><path d="M230.36,32.28a2.64,2.64,0,0,1-2.69-1.44q-.66-1.44-.66-6,0-4.14.71-5.58a2.62,2.62,0,0,1,2.59-1.44A3.36,3.36,0,0,1,233,19V30.76a2.77,2.77,0,0,1-2.68,1.52M245.09,0,233,.58v5l.1,4.19-.1.11a10.48,10.48,0,0,0-6.4-2.1,10.37,10.37,0,0,0-8.93,4.4c-2.12,2.93-3.17,7-3.17,12.21q0,8.55,3.17,12.76t9.14,4.22a10.94,10.94,0,0,0,7.86-2.94l.95,2.31h9.43ZM202.86,24.73a5.82,5.82,0,0,1,1.52-4.32,5.66,5.66,0,0,1,4.14-1.49,12.47,12.47,0,0,1,4,.63l.69-11.11a10.83,10.83,0,0,0-3.83-.58,8.8,8.8,0,0,0-7.81,4.51h-.16l-1-4.09-9.59.42V40.77h12.05Zm-27.63,7.19a3.2,3.2,0,0,1-1.93.57c-1.51,0-2.26-.78-2.26-2.36a2.27,2.27,0,0,1,2.57-2.56,11,11,0,0,1,2.41.26v2.51a1.85,1.85,0,0,1-.79,1.58M188,40.77V21.64q0-7.12-3.17-10.43c-2.11-2.19-5.79-3.3-11-3.3a31.53,31.53,0,0,0-12,2.1l.94,8.86a26.44,26.44,0,0,1,8.75-1.58c3,0,4.56.9,4.56,2.68v.42a25.16,25.16,0,0,0-4.71-.42,11.86,11.86,0,0,0-8.39,2.91,9.62,9.62,0,0,0-3.14,7.41c0,3.56.88,6.29,2.64,8.17s4.27,2.84,7.52,2.84a11.7,11.7,0,0,0,8-2.84l.78,2.31Zm-57,.42-.84,7.86a17.89,17.89,0,0,0,6.08,1,14.14,14.14,0,0,0,8.64-2.52,16.14,16.14,0,0,0,5.3-7.91L160.46,8.44H147.72l-2.93,14.31-.73,4.14h-.16l-1.16-4.09-4.4-14.36H124.77L138.34,39.3l-.1.32c-.56,1.4-2,2.09-4.19,2.09a9.57,9.57,0,0,1-3-.52M92.91.58V40.77h12V28.14h2.73l3.88,12.63h13.2l-6.65-17.66,6.6-14.67h-13l-4,10.64H105V0ZM82.12,8q-15.95,0-15.93,17,0,8,4,12.24T81.91,41.4a17.69,17.69,0,0,0,8.17-1.57l-.79-8.65a22.34,22.34,0,0,1-4.71.63,5.57,5.57,0,0,1-4.33-1.7,7.55,7.55,0,0,1-1.54-5.17c0-2.68.42-4.52,1.26-5.5S82.43,18,84.84,18a17.24,17.24,0,0,1,4.3.63l.57-9.49A22.36,22.36,0,0,0,82.12,8m-31.29,24a3.21,3.21,0,0,1-1.94.57c-1.5,0-2.25-.78-2.25-2.36a2.27,2.27,0,0,1,2.57-2.56,11,11,0,0,1,2.41.26v2.51a1.85,1.85,0,0,1-.79,1.58m12.73,8.85V21.64q0-7.12-3.16-10.43c-2.12-2.19-5.8-3.3-11-3.3a31.6,31.6,0,0,0-12,2.1l1,8.86a26.44,26.44,0,0,1,8.75-1.58c3,0,4.56.9,4.56,2.68v.42A25.19,25.19,0,0,0,46.9,20a11.84,11.84,0,0,0-8.38,2.91,9.63,9.63,0,0,0-3.15,7.41c0,3.56.88,6.29,2.65,8.17s4.27,2.84,7.52,2.84a11.68,11.68,0,0,0,8-2.84l.79,2.31ZM19.15,16a2.43,2.43,0,0,1-1.86.52H12.63V11.69h4.66a2.56,2.56,0,0,1,1.81.49,2.69,2.69,0,0,1,.5,1.87,3.19,3.19,0,0,1-.45,2m.61,14.22a2.91,2.91,0,0,1-2.05.5H12.58V25.52h5a3,3,0,0,1,2.15.55,3.05,3.05,0,0,1,.53,2.07,3.3,3.3,0,0,1-.47,2.12m7.33-10.19V20a8.34,8.34,0,0,0,5-8.13A9,9,0,0,0,28.45,4.3Q24.79,1.47,17.82,1.47H0v39.3H17.5q8.07,0,12-3.09A10.41,10.41,0,0,0,33.38,29q0-6.81-6.29-9"/><path d="M289.75,91.31c0,2.64-.51,4.44-1.51,5.4s-2.87,1.45-5.58,1.45a6.36,6.36,0,0,1-4.64-1.5q-1.51-1.51-1.51-5.35c0-2.55.49-4.33,1.45-5.34s2.69-1.51,5.17-1.51,4.2.51,5.16,1.51,1.46,2.79,1.46,5.34m6.56,45.74a2.86,2.86,0,0,1,1.45,2.68c0,1.46-1.05,2.57-3.14,3.3s-5.92,1.11-11.49,1.11q-5.58,0-8.07-1.28a4.25,4.25,0,0,1-2.5-4.06,6.11,6.11,0,0,1,1.63-3.83l16.37,1q4.29.24,5.75,1m14.91-46.2a26.73,26.73,0,0,0-.69-6.39l7.08-5.8L313,68.44,300.77,72q-7.08-3.58-17.87-3.6-14.75,0-21.6,6.1t-6.85,16.31q0,11.15,7.67,16.6-8.72,4.53-8.71,12.89a12.76,12.76,0,0,0,5.22,10.56,13.67,13.67,0,0,0-4.87,10.68q0,8.37,7.37,13.47t22.46,5.11q17.31,0,25.66-6.15t8.36-17.42q0-8.7-5.51-13.35T294.51,118l-16.72-.82c-2.48-.07-3.71-.93-3.71-2.55a2.85,2.85,0,0,1,1.15-2.32,57.64,57.64,0,0,0,7.78.46q28.22,0,28.21-21.94m-66,5.46q0-13.35-6.62-20.67t-18-7.31a29.31,29.31,0,0,0-18.81,6.38l-3.13-5.57-16,.93v70.59h22.29V91.31q3.13-4.05,9.29-4.06,4.41,0,6.5,2.15c1.4,1.43,2.09,3.73,2.09,6.91v44.35h22.41ZM161.54,47q-12.19,0-12.19,8.7c0,3.18,1,5.42,2.9,6.74s5,2,9.29,2q12.08,0,12.07-8.71T161.54,47m11.38,22.64H150.05v71.05h22.87Zm-67.38,41.21-2.21,9.06H103l-2.32-9.06L89.75,69.61H65.49L90.1,140.66H116l24.84-71H116.57ZM45.44,47q-12.19,0-12.19,8.7c0,3.18,1,5.42,2.9,6.74s5,2,9.29,2q12.08,0,12.07-8.71T45.44,47M56.82,69.61H34v71.05H56.82ZM0,47v93.69H24.08L24.15,47"/><path d="M320.67,59.93h-1.51V58h1.38c.79,0,1.19.33,1.19,1s-.35.91-1.06,1m-.13-3.06h-2.7v6.55h1.32v-2.6h1.35l1.25,2.6h1.45l-1.45-2.73A1.73,1.73,0,0,0,323,58.88c0-1.34-.82-2-2.47-2m-3.67,0a4.69,4.69,0,0,1,3.41-1.38A4.71,4.71,0,0,1,325,60.26a4.62,4.62,0,0,1-1.4,3.36A4.53,4.53,0,0,1,320.28,65a4.8,4.8,0,0,1-4.81-4.77,4.58,4.58,0,0,1,1.4-3.36m-.64,7.41a5.63,5.63,0,0,0,8,0,5.54,5.54,0,0,0,1.66-4,5.62,5.62,0,0,0-1.66-4.08,5.63,5.63,0,0,0-8,0,5.55,5.55,0,0,0-1.68,4.08,5.49,5.49,0,0,0,1.68,4"/></svg>