<?xml version="1.0" encoding="utf-8"?>
<!-- Generator: Adobe Illustrator 27.0.1, SVG Export Plug-In . SVG Version: 6.00 Build 0)  -->
<svg version="1.1" id="Layer_1" xmlns="http://www.w3.org/2000/svg" xmlns:xlink="http://www.w3.org/1999/xlink" x="0px" y="0px"
	 viewBox="0 0 1920 1080" style="enable-background:new 0 0 1920 1080;" xml:space="preserve">
<style type="text/css">
	.st0{fill-rule:evenodd;clip-rule:evenodd;fill:#232659;}
	.st1{fill:#232659;}
</style>
<g>
	<g>
		<path class="st0" d="M318.4,474.4c6.8,0,12.3,5.2,12.3,11.6s-5.5,11.6-12.3,11.6c-6.8,0-12.3-5.2-12.3-11.6
			C306.1,479.6,311.6,474.4,318.4,474.4L318.4,474.4z M235.6,474.4c6.8,0,12.3,5.2,12.3,11.6s-5.5,11.6-12.3,11.6
			c-6.8,0-12.3-5.2-12.3-11.6C223.3,479.6,228.8,474.4,235.6,474.4L235.6,474.4z M407.6,474.4c-6.8,0-12.3,5.2-12.3,11.6
			s5.5,11.6,12.3,11.6c6.8,0,12.3-5.2,12.3-11.6C419.9,479.6,414.4,474.4,407.6,474.4L407.6,474.4z M490.4,474.4
			c-6.8,0-12.3,5.2-12.3,11.6s5.5,11.6,12.3,11.6c6.8,0,12.3-5.2,12.3-11.6C502.7,479.6,497.2,474.4,490.4,474.4L490.4,474.4z
			 M332.3,506.6H167.8c4.8-14.8,7.4-24.2,11.5-38.2l21.7-1.1l66.8-3.4l-66.8-3.4l-20.5-1c1.5-9.7,3.9-19.2,7.1-28.3
			c-95.6-25.5-78-84.5-95.6-161.2c-9.7-42.4-22.9-61.9-64-64.4c113.1-19.3,86.7,120.6,128.6,150.9c14.2,10.3,34.2,15.2,60.1,14.9
			c12.6,0.3,27-0.5,43.2-2.3c-11.8,0-22.5-0.5-32.1-1.3c28.2-28.3,66.6-47.5,109.7-52.5v135h25h1.4h25v-135
			c43.1,5,81.5,24.2,109.7,52.5c-9.6,0.8-20.4,1.2-32.1,1.3c16.1,1.8,30.5,2.5,43.1,2.3c25.9,0.3,45.9-4.6,60.1-14.9
			C611.3,326,584.9,186.1,698,205.4c-41.1,2.5-54.3,21.9-64,64.3c-17.6,76.7,0,135.8-95.6,161.2c3.2,9.1,5.6,18.6,7.1,28.3l-20.5,1
			l-66.8,3.4l66.8,3.4l21.7,1.1c4.1,14,6.7,23.5,11.5,38.2H393.7c-0.5,28.9,1.8,56.3,7.8,81.6L363,612.1l0,0l0,0l0,0l0,0l-38.4-23.9
			C330.5,562.9,332.8,535.5,332.3,506.6L332.3,506.6L332.3,506.6z"/>
	</g>
	<g>
		<path class="st0" d="M363,676.9c-14.7,0-29.5-1.1-42.5-3.2c2.2,7.7,7.5,14.6,22,17.2c-5.4,23.8-43.9,27.6-61.8-30.3
			c16.1-2.2,33.4-2.9,48.3-6.3c9.7-2.2,17.6-2.1,23.9,0.1c6.6,2.2,13.7,2.2,20.3,0c6.3-2.1,14.2-2.3,23.9-0.1
			c14.9,3.4,32.2,4.1,48.3,6.3c-18,58-56.4,54.2-61.8,30.3c14.5-2.5,19.8-9.4,22-17.2C392.5,675.8,377.7,676.9,363,676.9L363,676.9
			L363,676.9z M363,624.5c-34.1-9.3-81.8-3.8-110.9,16.5c-6.2,4.3-13.7,5.9-21.6,4.7c-8-1.3-14.2-5-18-11
			c-18.7-29.1-21.7-62.8-30.9-95.1c-2.3-8.2-8.5-15.4-12.8-23.1c0.6,19.8,2.8,40.8,3.1,61.9c0.4,25-5.3,36.4,2.8,58
			c0.2-4.5,1.5-9,4-13.5c0.5,2.4,1.1,4.7,1.7,7.1c2.9,19.1-1,31.8,8.4,51.3c0.7-4.7,2.2-9,6.2-12.1l0.2,0.3
			c-1.2,24.6,7.3,47,22.7,66c0.1-8,1.7-15.3,6.4-21c2.2,29,7.2,44.4,35.4,85.6c-0.5-7.7,0.7-15.3,2.5-20c6.4,17.6,10.6,28,33.6,52.4
			c0-4.3,1.7-7.4,3.9-12.3c1.8,27.4,35.9,42.3,63.3,56.1c27.4-13.8,61.5-28.6,63.3-56.1c2.3,4.9,4,8,3.9,12.3
			c23-24.4,27.1-34.8,33.6-52.4c1.9,4.7,3,12.2,2.5,20c28.2-41.3,33.1-56.7,35.4-85.6c4.7,5.7,6.3,13,6.4,21
			c15.4-19,23.9-41.4,22.7-66l0.2-0.3c4,3.1,5.5,7.4,6.2,12.1c9.4-19.5,5.5-32.2,8.4-51.3c0.6-2.3,1.2-4.7,1.7-7.1
			c2.5,4.5,3.8,9,4,13.5c8.1-21.5,2.4-33,2.8-58c0.3-21.1,2.5-42,3.2-61.9c-4.3,7.7-10.4,14.8-12.8,23.1
			c-9.2,32.3-12.2,66-30.9,95.1c-3.8,5.9-10,9.7-18,11c-8,1.3-15.4-0.3-21.6-4.7C444.8,620.8,397.1,615.2,363,624.5L363,624.5
			L363,624.5z"/>
	</g>
</g>
<g>
	<path class="st1" d="M726.4,502.1c-11.9,0-26.7-0.1-39.8,0.5c-13.6,0.8-16.9,0.1-16.9-3.5c0-8.9,25.9,0.8,25.9-40
		s-25.8-31.2-25.8-40.1c0-3.5,2.3-3.9,16.7-3.1c7.6,0.5,16.3,0.8,25.4,0.9c11.6-0.1,19.6-0.4,25.5-0.9c14.3-0.8,16.7-0.4,16.7,3.1
		c0,8.9-25.8-0.7-25.4,40.1c0,20.8,8.8,32.5,24.2,32.5c30.5,0,26.2-32.8,36.2-32.8c4.6,0,6.2,5.8,6.2,29.4
		c0,11.7-3.2,16.1-11.9,16.1C766.5,504.4,743.1,502.1,726.4,502.1z"/>
	<path class="st1" d="M806.2,459.5c0-27.5,28.9-44.4,66.1-44.4c37.4,0,66.3,16.9,66.3,44.4c0,27.4-28.9,44.3-66.3,44.3
		C835.1,503.8,806.2,486.9,806.2,459.5z M894.2,459.5c0-24-9.9-32-21.9-32c-11.9,0-21.6,8-21.6,32c0,24.2,9.7,31.9,21.6,31.9
		C884.3,491.3,894.2,483.6,894.2,459.5z"/>
	<path class="st1" d="M978.3,502.1c-11.9,0-18.1,1.2-26.3,1.2c-5.8,0-8-0.9-8-3.6c0-8.9,25.9,0.5,25.9-40.4
		c0-40.8-25.8-31.2-25.8-40.1c0-2.6,2-3.5,7.3-3.5c7,0,11.2,1.4,24.8,1.4c13.6,0,25.2-1.4,32.7-1.4c10,0,9.5,10.5,25,28.3
		c9.2,10.5,19.3,17.7,22.7,17.7c1.6,0,2.3-1.8,2.3-5c0-36-22-27.9-22-37.3c0-2.8,2.8-3.6,7-3.6c5.4,0,11.9,1.2,22.7,1.2
		c11.5,0,18.5-1.2,22.5-1.2c4.9,0,7.6,1.2,7.6,3.4c0,8.9-21.7-0.7-21.7,40.1c0,18,1.9,28.8,1.9,37.7c0,4-1.8,6.1-5.9,5.8
		c-2.7-0.1-8.8-0.7-15.1-0.7c-7.6,0-16.1,0.7-19.6,0.7c-8.6,0-7.3-9.9-22.1-28.5c-10.8-13.6-20.4-22.4-24.3-22.4
		c-2.8,0-3.8,4.7-3.8,10.8c0,36,26.6,28.1,26.6,37c0,2.7-3,3.9-6.5,3.9C999.4,503.6,990.5,502.1,978.3,502.1z"/>
	<path class="st1" d="M1195.8,497c-5.8,0-16.2,6.8-35.5,6.8c-36.9,0-60.9-18.2-60.9-44.1c0-26.7,23.8-44.1,59.4-44.1
		c23.8,0,31.3,4.7,39.4,4.7c4.5,0,8.9-4.6,13.6-4.6c5,0,9,5.3,9,17c0,11.9-3.8,17.1-9,17c-8.9-0.3-12.6-21.1-40.8-21.1
		c-16.9,0-28.6,12-28.6,31.7c0,18.9,12.2,30,24.8,30c12.3,0,16.3-4.7,16.3-9.9c0.1-4.9-3-7.6-7.2-9.6c-4.5-2.2-9.6-3.2-13.5-4.9
		c-3.2-1.3-4.3-2.8-4-4.9c0.3-2.3,1.8-3.9,8.4-3.9c9.3,0,19.2,1.5,32,1.5c12.6,0,30.2-1.5,37.3-1.5c4.6,0,6.8,1.1,6.8,3.5
		c0,7.7-22.5,3.6-22.5,26.6v2.6c0,4.7,0.8,14.2-5.1,14.2C1209.8,504,1201.6,497,1195.8,497z"/>
	<path class="st1" d="M1240.6,499.7c0-8.9,25.9,0.9,25.9-39.8c0-41.2-25.8-31.6-25.8-40.5c0-4,4.9-3.8,16.7-3.1
		c7,0.4,14.8,0.9,24,0.8c9.3-0.1,13.1-0.1,20.1-0.8c10.5-0.9,15.4-0.9,15.4,3.1c0,6.7-18.6,6.7-18.6,21.6c0,7.7,6.2,11.5,20.7,11.5
		c13.9,0,19.6-3.6,19.6-11.5c0-15.7-18.2-14.8-18.2-21.6c0-4,4.9-4,15.4-3.1c7,0.7,10.8,0.7,20.1,0.8c9.2,0.1,17-0.4,24-0.8
		c11.9-0.7,16.7-0.9,16.7,3.1c0,8.9-25.8-0.7-25.8,40.5c0,40.8,25.9,30.9,25.9,39.8c0,4.2-5,4.3-16.9,3.4c-7.2-0.5-15-1.1-24-0.9
		c-9.2,0.1-13,0.4-20.1,0.9c-10.5,0.8-15.5,0.8-15.5-3.4c0-6.8,18.2-7.3,18.2-22.9c0-7.8-5.7-11.5-19.6-11.5
		c-14.4,0-20.7,3.8-20.7,11.5c0,14.8,18.6,16.2,18.6,22.9c0,4.2-4.7,4.2-15.3,3.4c-7.2-0.5-10.9-0.8-20.1-0.9
		c-9,0.1-16.9,0.4-24,0.9C1245.6,504,1240.6,503.9,1240.6,499.7z"/>
	<path class="st1" d="M1400.9,459.5c0-27.5,28.9-44.4,66.1-44.4c37.4,0,66.3,16.9,66.3,44.4c0,27.4-28.9,44.3-66.3,44.3
		C1429.7,503.8,1400.9,486.9,1400.9,459.5z M1488.9,459.5c0-24-9.9-32-21.9-32c-11.9,0-21.6,8-21.6,32c0,24.2,9.7,31.9,21.6,31.9
		C1479,491.3,1488.9,483.6,1488.9,459.5z"/>
	<path class="st1" d="M1625.9,486.2l-2.7-5.8c-2.4-5.1-6.7-13.4-14-13.4c-6.5,0-10.3,4.2-10.3,10.7c0,15.4,20.2,14.4,20.2,21.7
		c0,2.7-1.6,3.8-5.9,3.8c-3.4,0-16.2-1.1-32.1-1.1c-13.5,0-28.1,1.1-34.4,1.1c-5.8,0-8-1.1-8-3.8c0-8.9,25.9,0.9,25.9-39.8
		c0-40.8-25.8-31.2-25.8-40.1c0-2.6,1.9-3.5,7.2-3.5c7,0,17,1.2,31.3,1.2c11.2,0,23.5-0.8,32.9-1.2c50.2-1.9,64.7,6.2,64.7,23.2
		c0,14.2-9.3,19.7-23.9,21.7c-0.9,0.1-1.5,0.4-1.5,1.2s0.4,1.2,1.8,1.5c18,3.6,11.2,28.2,20.5,28.2c4.2,0,5.7-4,5.7-8.6
		c0-7.2-2.8-12.1-2.8-15.4c0-2.3,2.2-3.5,5.8-3.5c8.8,0,16.2,8.4,16.2,18.5c0,13.9-12.8,20.9-30.4,20.9h-3.5
		C1639,503.8,1631.3,497.8,1625.9,486.2z M1631.2,442.7c0-8.5-6.2-14.4-16.5-14.4c-10.4,0-16.3,4.6-16.3,14.3
		c0,9.4,6.3,15.1,15.3,15.1C1625,457.7,1631.2,451.9,1631.2,442.7z"/>
	<path class="st1" d="M1733.6,502.1c-11.9,0-18.1,1.2-26.3,1.2c-5.8,0-8-0.9-8-3.6c0-8.9,25.9,0.5,25.9-40.4
		c0-40.8-25.8-31.2-25.8-40.1c0-2.6,2-3.5,7.3-3.5c7,0,11.2,1.4,24.8,1.4c13.6,0,25.2-1.4,32.7-1.4c10,0,9.5,10.5,25,28.3
		c9.2,10.5,19.3,17.7,22.7,17.7c1.6,0,2.3-1.8,2.3-5c0-36-22-27.9-22-37.3c0-2.8,2.8-3.6,7-3.6c5.4,0,11.9,1.2,22.7,1.2
		c11.5,0,18.5-1.2,22.5-1.2c4.9,0,7.6,1.2,7.6,3.4c0,8.9-21.7-0.7-21.7,40.1c0,18,1.9,28.8,1.9,37.7c0,4-1.8,6.1-5.9,5.8
		c-2.7-0.1-8.8-0.7-15.1-0.7c-7.6,0-16.1,0.7-19.6,0.7c-8.6,0-7.3-9.9-22.1-28.5c-10.8-13.6-20.4-22.4-24.3-22.4
		c-2.8,0-3.8,4.7-3.8,10.8c0,36,26.6,28.1,26.6,37c0,2.7-3,3.9-6.5,3.9C1754.7,503.6,1745.8,502.1,1733.6,502.1z"/>
	<path class="st1" d="M669.7,661.4c0-8.9,25.9,0.9,25.9-39.8s-25.8-31.2-25.8-40.1c0-2.7,2-3.5,7.2-3.5c7,0,18.8,1.2,33.1,1.2
		c9.9,0,20.7-0.7,29-0.9c43.7-1.3,61.2,4.5,61.2,22.3c0,12-6.6,17.5-20.8,19.3c-2.7,0.3-3.2,0.7-3.2,1.3c0,0.8,0.5,1.1,3.2,1.6
		c15,2.8,23.5,9.2,23.5,21.1c0,18.9-18.5,22.3-63.9,20.9c-8.2-0.3-16.1-0.7-28.1-0.7c-13.4,0-27,1.1-33.3,1.1
		C672.1,665.2,669.7,664.3,669.7,661.4z M757.7,602.8c0-7.4-5.3-12.7-14.4-12.7c-9.3,0-14.8,3.9-14.8,12.6c0,8.4,5.9,13.4,13.9,13.4
		C752.5,616.1,757.7,610.8,757.7,602.8z M757.7,640.2c0-8-5.3-13.2-15.4-13.2c-8,0-13.9,5-13.9,13.4c0,8.6,5.5,12.6,14.8,12.6
		C752.5,652.9,757.7,647.7,757.7,640.2z"/>
	<path class="st1" d="M810.2,661.4c0-8.9,25.9,0.9,25.9-39.8s-25.8-31.2-25.8-40.1c0-2.7,2-3.5,7.2-3.5c7,0,18.8,1.2,33.1,1.2
		c9.9,0,20.7-0.7,29-0.9c43.7-1.3,61.2,4.5,61.2,22.3c0,12-6.6,17.5-20.8,19.3c-2.7,0.3-3.2,0.7-3.2,1.3c0,0.8,0.5,1.1,3.2,1.6
		c15,2.8,23.5,9.2,23.5,21.1c0,18.9-18.5,22.3-63.9,20.9c-8.2-0.3-16.1-0.7-28.1-0.7c-13.4,0-27,1.1-33.3,1.1
		C812.7,665.2,810.2,664.3,810.2,661.4z M898.2,602.8c0-7.4-5.3-12.7-14.4-12.7c-9.3,0-14.8,3.9-14.8,12.6c0,8.4,5.9,13.4,13.9,13.4
		C893,616.1,898.2,610.8,898.2,602.8z M898.2,640.2c0-8-5.3-13.2-15.4-13.2c-8,0-13.9,5-13.9,13.4c0,8.6,5.5,12.6,14.8,12.6
		C893,652.9,898.2,647.7,898.2,640.2z"/>
	<path class="st1" d="M958.2,621.5c0-27.5,28.8-44.4,65.9-44.4c37.3,0,66.1,16.9,66.1,44.4c0,9.4-2.8,16.7-9.4,22.3
		c-1.1,0.8-1.2,2,0.4,3c2.4,1.5,5.7,2.2,8.2,2.2c5.3,0,9-3.4,9-7.8c0-6.5-3.1-8.9-3.1-11.6c0-2.3,2.3-3.5,6.2-3.5
		c9.4,0,17.4,8.4,17.4,18.5c0,13.9-12,21.3-31.7,21.3c-10,0-15.7-2.2-24.2-5.9c-2-0.9-4.9-0.4-7,0.4c-9.6,3.5-21.5,5.5-32,5.5
		C986.9,665.8,958.2,648.9,958.2,621.5z M1029.1,622.8c3.4,0,9.6,0.9,13.4,1.9c2.6,0.8,3.1,0,3.2-1.4c0.1-1.5,0.1-2.8,0.1-4.6
		c0-22-9.7-29.3-21.7-29.3c-11.7,0-21.5,7.3-21.5,29.3c0,5,0.3,8.2,1.1,11.9c0.5,1.9,2.6,1.9,3.8,0.5
		C1013,625.4,1019.9,622.8,1029.1,622.8z M1039.5,645.1c0-5.1-5.4-7.4-11.5-7.4c-6.6,0-11.5,2.3-11.5,7.4c0,5.4,4.9,7.6,11.5,7.6
		C1034.1,652.7,1039.5,650.5,1039.5,645.1z"/>
</g>
</svg>
