<?xml version="1.0" encoding="utf-8"?>
<!-- Generator: Adobe Illustrator 27.0.1, SVG Export Plug-In . SVG Version: 6.00 Build 0)  -->
<svg version="1.1" id="Layer_1" xmlns="http://www.w3.org/2000/svg" xmlns:xlink="http://www.w3.org/1999/xlink" x="0px" y="0px"
	 viewBox="0 0 1920 607.4" style="enable-background:new 0 0 1920 607.4;" xml:space="preserve">
<style type="text/css">
	.st0{fill-rule:evenodd;clip-rule:evenodd;fill:#F2F2F2;}
	.st1{fill:#F2F2F2;}
</style>
<g>
	<g>
		<g>
			<path class="st0" d="M327.2,255.9c5,0,9,3.8,9,8.5s-4,8.5-9,8.5c-5,0-9-3.8-9-8.5C318.2,259.7,322.2,255.9,327.2,255.9
				L327.2,255.9z M266.8,255.9c5,0,9,3.8,9,8.5s-4,8.5-9,8.5c-5,0-9-3.8-9-8.5C257.9,259.7,261.9,255.9,266.8,255.9L266.8,255.9z
				 M392.2,255.9c-5,0-9,3.8-9,8.5s4,8.5,9,8.5c5,0,9-3.8,9-8.5C401.1,259.7,397.1,255.9,392.2,255.9L392.2,255.9z M452.5,255.9
				c-5,0-9,3.8-9,8.5s4,8.5,9,8.5c5,0,9-3.8,9-8.5C461.5,259.7,457.5,255.9,452.5,255.9L452.5,255.9z M337.3,279.4H217.4
				c3.5-10.8,5.4-17.6,8.4-27.9l15.8-0.8l48.7-2.5l-48.7-2.5l-14.9-0.8c1.1-7.1,2.9-14,5.2-20.6c-69.7-18.6-56.8-61.6-69.7-117.5
				c-7.1-30.9-16.7-45.1-46.6-46.9c82.4-14.1,63.2,87.9,93.7,110c10.3,7.5,24.9,11.1,43.8,10.9c9.2,0.2,19.7-0.4,31.4-1.7
				c-8.6,0-16.4-0.4-23.4-0.9c20.6-20.6,48.6-34.6,80-38.3v98.4h18.2h1h18.2v-98.4c31.4,3.6,59.4,17.7,80,38.3
				c-7,0.6-14.8,0.9-23.4,0.9c11.8,1.3,22.2,1.9,31.5,1.7c18.9,0.2,33.4-3.4,43.8-10.9c30.5-22.1,11.3-124.1,93.7-110
				c-30,1.8-39.6,16-46.7,46.9c-12.8,55.9,0,99-69.7,117.5c2.3,6.6,4.1,13.5,5.2,20.6l-15,0.8l-48.7,2.5l48.7,2.5l15.8,0.8
				c3,10.2,4.9,17.1,8.4,27.9H382c-0.4,21.1,1.3,41,5.6,59.5l-28,17.4l0,0l0,0l0,0l0,0l-28-17.4C336,320.4,337.6,300.4,337.3,279.4
				L337.3,279.4L337.3,279.4z"/>
		</g>
		<g>
			<path class="st0" d="M359.7,403.5c-10.7,0-21.5-0.8-31-2.4c1.6,5.6,5.5,10.7,16,12.5c-4,17.4-32,20.2-45-22.1
				c11.7-1.6,24.4-2.1,35.2-4.6c7.1-1.6,12.8-1.5,17.4,0c4.8,1.6,10,1.6,14.8,0c4.6-1.6,10.3-1.7,17.4,0c10.8,2.5,23.5,3,35.2,4.6
				c-13.1,42.3-41.1,39.5-45,22.1c10.5-1.9,14.5-6.9,16-12.5C381.1,402.7,370.4,403.5,359.7,403.5L359.7,403.5L359.7,403.5z
				 M359.7,365.3c-24.8-6.8-59.6-2.7-80.8,12.1c-4.5,3.1-10,4.3-15.8,3.4c-5.8-0.9-10.3-3.7-13.1-8c-13.6-21.2-15.8-45.8-22.5-69.3
				c-1.7-6-6.2-11.2-9.3-16.8c0.5,14.5,2.1,29.7,2.3,45.1c0.3,18.2-3.9,26.5,2,42.2c0.1-3.3,1.1-6.6,2.9-9.9
				c0.4,1.7,0.8,3.5,1.3,5.2c2.1,13.9-0.7,23.2,6.1,37.4c0.5-3.4,1.6-6.6,4.5-8.8l0.1,0.2c-0.9,17.9,5.3,34.3,16.5,48.1
				c0.1-5.8,1.2-11.1,4.6-15.3c1.6,21.1,5.2,32.3,25.8,62.4c-0.4-5.6,0.5-11.2,1.9-14.5c4.7,12.8,7.7,20.4,24.5,38.2
				c0-3.1,1.2-5.4,2.9-8.9c1.3,20,26.2,30.8,46.1,40.9c20-10,44.8-20.9,46.1-40.9c1.6,3.5,2.9,5.8,2.9,8.9
				c16.8-17.8,19.8-25.4,24.5-38.2c1.4,3.4,2.2,8.9,1.9,14.5c20.5-30.1,24.2-41.3,25.8-62.4c3.4,4.2,4.6,9.5,4.6,15.3
				c11.2-13.8,17.4-30.2,16.5-48.1l0.1-0.2c2.9,2.3,4,5.4,4.5,8.8c6.9-14.2,4-23.5,6.1-37.4c0.4-1.7,0.9-3.4,1.2-5.2
				c1.8,3.3,2.8,6.6,2.9,9.9c5.9-15.7,1.8-24,2-42.2c0.2-15.4,1.8-30.7,2.3-45.1c-3.1,5.6-7.6,10.8-9.3,16.8
				c-6.7,23.6-8.9,48.1-22.5,69.3c-2.8,4.3-7.3,7.1-13.1,8s-11.3-0.3-15.8-3.4C419.3,362.6,384.5,358.5,359.7,365.3L359.7,365.3
				L359.7,365.3z"/>
		</g>
	</g>
	<g>
		<path class="st1" d="M678.9,265.9c-11.9,0-26.7-0.1-39.8,0.5c-13.6,0.8-16.9,0.1-16.9-3.5c0-8.9,25.9,0.8,25.9-40
			s-25.8-31.2-25.8-40.1c0-3.5,2.3-3.9,16.7-3.1c7.6,0.5,16.3,0.8,25.4,0.9c11.6-0.1,19.6-0.4,25.5-0.9c14.3-0.8,16.7-0.4,16.7,3.1
			c0,8.9-25.8-0.7-25.4,40.1c0,20.8,8.8,32.5,24.2,32.5c30.5,0,26.2-32.8,36.2-32.8c4.6,0,6.2,5.8,6.2,29.4
			c0,11.7-3.2,16.1-11.9,16.1C719,268.1,695.6,265.9,678.9,265.9z"/>
		<path class="st1" d="M758.7,223.2c0-27.5,28.9-44.4,66.2-44.4c37.4,0,66.3,16.9,66.3,44.4c0,27.4-28.9,44.3-66.3,44.3
			C787.6,267.5,758.7,250.6,758.7,223.2z M846.7,223.2c0-24-9.8-32-21.9-32c-11.9,0-21.6,8-21.6,32c0,24.2,9.7,31.9,21.6,31.9
			C836.8,255.1,846.7,247.4,846.7,223.2z"/>
		<path class="st1" d="M930.8,265.9c-11.9,0-18.1,1.2-26.3,1.2c-5.8,0-8-1-8-3.6c0-8.9,25.9,0.5,25.9-40.4
			c0-40.8-25.8-31.2-25.8-40.1c0-2.6,2-3.5,7.3-3.5c7,0,11.2,1.4,24.8,1.4c13.6,0,25.2-1.4,32.7-1.4c10,0,9.5,10.5,25,28.4
			c9.2,10.5,19.3,17.7,22.7,17.7c1.6,0,2.3-1.8,2.3-5c0-36-22-27.9-22-37.3c0-2.8,2.8-3.6,7-3.6c5.4,0,11.9,1.2,22.7,1.2
			c11.5,0,18.5-1.2,22.5-1.2c4.9,0,7.6,1.2,7.6,3.4c0,8.9-21.7-0.7-21.7,40.1c0,18,1.9,28.8,1.9,37.7c0,4-1.8,6.1-5.9,5.8
			c-2.7-0.1-8.8-0.7-15.1-0.7c-7.6,0-16.1,0.7-19.6,0.7c-8.6,0-7.3-9.9-22.1-28.5c-10.8-13.6-20.4-22.4-24.3-22.4
			c-2.8,0-3.8,4.7-3.8,10.8c0,36,26.6,28.1,26.6,37c0,2.7-3,3.9-6.5,3.9C951.9,267.3,942.9,265.9,930.8,265.9z"/>
		<path class="st1" d="M1148.3,260.7c-5.8,0-16.2,6.8-35.5,6.8c-36.8,0-60.9-18.2-60.9-44.1c0-26.7,23.8-44.1,59.4-44.1
			c23.8,0,31.3,4.7,39.4,4.7c4.5,0,8.9-4.6,13.6-4.6c5,0,9,5.3,9,17c0,11.9-3.8,17.1-9,17c-8.9-0.3-12.6-21.1-40.8-21.1
			c-16.9,0-28.6,12-28.6,31.7c0,18.9,12.2,30,24.8,30c12.3,0,16.3-4.7,16.3-9.9c0.1-4.9-3-7.6-7.2-9.6c-4.5-2.2-9.6-3.2-13.5-4.9
			c-3.2-1.4-4.3-2.8-4.1-4.9c0.3-2.3,1.8-3.9,8.4-3.9c9.3,0,19.2,1.5,32,1.5c12.6,0,30.2-1.5,37.3-1.5c4.6,0,6.8,1.1,6.8,3.5
			c0,7.7-22.5,3.6-22.5,26.6v2.6c0,4.7,0.8,14.2-5.1,14.2C1162.3,267.7,1154.1,260.7,1148.3,260.7z"/>
		<path class="st1" d="M1193.1,263.4c0-8.9,25.9,0.9,25.9-39.8c0-41.2-25.8-31.6-25.8-40.5c0-4,4.9-3.8,16.7-3.1
			c7,0.4,14.8,0.9,24,0.8c9.3-0.1,13.1-0.1,20.1-0.8c10.5-0.9,15.4-0.9,15.4,3.1c0,6.8-18.6,6.8-18.6,21.6c0,7.7,6.2,11.5,20.7,11.5
			c13.9,0,19.6-3.6,19.6-11.5c0-15.7-18.2-14.9-18.2-21.6c0-4,4.9-4,15.4-3.1c7,0.7,10.8,0.7,20.1,0.8c9.2,0.1,17-0.4,24-0.8
			c11.9-0.7,16.7-0.9,16.7,3.1c0,8.9-25.8-0.7-25.8,40.5c0,40.8,25.9,30.9,25.9,39.8c0,4.2-5,4.3-16.9,3.4c-7.2-0.5-15-1.1-24-1
			c-9.2,0.1-13,0.4-20.1,1c-10.5,0.8-15.5,0.8-15.5-3.4c0-6.8,18.2-7.3,18.2-23c0-7.8-5.7-11.5-19.6-11.5
			c-14.4,0-20.7,3.8-20.7,11.5c0,14.9,18.6,16.2,18.6,23c0,4.2-4.7,4.2-15.2,3.4c-7.2-0.5-10.9-0.8-20.1-1c-9,0.1-16.9,0.4-24,1
			C1198.1,267.7,1193.1,267.6,1193.1,263.4z"/>
		<path class="st1" d="M1353.3,223.2c0-27.5,28.9-44.4,66.2-44.4c37.4,0,66.3,16.9,66.3,44.4c0,27.4-28.9,44.3-66.3,44.3
			C1382.2,267.5,1353.3,250.6,1353.3,223.2z M1441.4,223.2c0-24-9.9-32-21.9-32c-11.9,0-21.6,8-21.6,32c0,24.2,9.7,31.9,21.6,31.9
			C1431.5,255.1,1441.4,247.4,1441.4,223.2z"/>
		<path class="st1" d="M1578.4,249.9l-2.7-5.8c-2.4-5.1-6.8-13.4-14-13.4c-6.5,0-10.3,4.2-10.3,10.7c0,15.4,20.2,14.4,20.2,21.7
			c0,2.7-1.6,3.8-5.9,3.8c-3.4,0-16.2-1.1-32.1-1.1c-13.5,0-28.1,1.1-34.4,1.1c-5.8,0-8-1.1-8-3.8c0-8.9,25.9,1,25.9-39.8
			s-25.8-31.2-25.8-40.1c0-2.6,1.9-3.5,7.2-3.5c7,0,17,1.2,31.3,1.2c11.2,0,23.5-0.8,32.9-1.2c50.2-1.9,64.7,6.2,64.7,23.2
			c0,14.2-9.3,19.7-23.9,21.7c-0.9,0.1-1.5,0.4-1.5,1.2s0.4,1.2,1.8,1.5c17.9,3.6,11.2,28.2,20.5,28.2c4.2,0,5.7-4,5.7-8.6
			c0-7.1-2.8-12.1-2.8-15.4c0-2.3,2.2-3.5,5.8-3.5c8.8,0,16.2,8.4,16.2,18.5c0,13.9-12.8,20.9-30.4,20.9h-3.5
			C1591.5,267.5,1583.8,261.5,1578.4,249.9z M1583.6,206.5c0-8.5-6.2-14.4-16.5-14.4c-10.4,0-16.3,4.6-16.3,14.3
			c0,9.5,6.3,15.1,15.2,15.1C1577.4,221.4,1583.6,215.6,1583.6,206.5z"/>
		<path class="st1" d="M1686.1,265.9c-11.9,0-18.1,1.2-26.3,1.2c-5.8,0-8-1-8-3.6c0-8.9,25.9,0.5,25.9-40.4
			c0-40.8-25.8-31.2-25.8-40.1c0-2.6,2-3.5,7.3-3.5c7,0,11.2,1.4,24.8,1.4c13.6,0,25.2-1.4,32.7-1.4c10,0,9.4,10.5,25,28.4
			c9.2,10.5,19.3,17.7,22.7,17.7c1.6,0,2.3-1.8,2.3-5c0-36-22-27.9-22-37.3c0-2.8,2.8-3.6,7-3.6c5.4,0,11.9,1.2,22.7,1.2
			c11.5,0,18.5-1.2,22.5-1.2c4.9,0,7.6,1.2,7.6,3.4c0,8.9-21.7-0.7-21.7,40.1c0,18,1.9,28.8,1.9,37.7c0,4-1.8,6.1-5.9,5.8
			c-2.7-0.1-8.8-0.7-15.1-0.7c-7.6,0-16.1,0.7-19.6,0.7c-8.6,0-7.3-9.9-22.1-28.5c-10.8-13.6-20.4-22.4-24.3-22.4
			c-2.8,0-3.8,4.7-3.8,10.8c0,36,26.6,28.1,26.6,37c0,2.7-3,3.9-6.5,3.9C1707.2,267.3,1698.3,265.9,1686.1,265.9z"/>
		<path class="st1" d="M622.2,425.2c0-8.9,25.9,1,25.9-39.8s-25.8-31.2-25.8-40.1c0-2.7,2-3.5,7.2-3.5c7,0,18.8,1.2,33.1,1.2
			c9.8,0,20.7-0.7,29-1c43.7-1.3,61.2,4.5,61.2,22.3c0,12-6.6,17.5-20.8,19.3c-2.7,0.3-3.2,0.7-3.2,1.3c0,0.8,0.5,1.1,3.2,1.6
			c15,2.8,23.5,9.2,23.5,21.1c0,18.9-18.5,22.3-63.8,20.9c-8.2-0.3-16.1-0.7-28.1-0.7c-13.4,0-27,1.1-33.3,1.1
			C624.6,428.9,622.2,428,622.2,425.2z M710.2,366.6c0-7.4-5.3-12.7-14.5-12.7c-9.3,0-14.8,3.9-14.8,12.5c0,8.4,5.9,13.4,13.9,13.4
			C704.9,379.8,710.2,374.5,710.2,366.6z M710.2,404c0-8-5.3-13.2-15.4-13.2c-8,0-13.9,5-13.9,13.4c0,8.6,5.5,12.5,14.8,12.5
			C704.9,416.6,710.2,411.4,710.2,404z"/>
		<path class="st1" d="M762.7,425.2c0-8.9,25.9,1,25.9-39.8s-25.8-31.2-25.8-40.1c0-2.7,2-3.5,7.2-3.5c7,0,18.8,1.2,33.1,1.2
			c9.8,0,20.7-0.7,29-1c43.7-1.3,61.2,4.5,61.2,22.3c0,12-6.6,17.5-20.8,19.3c-2.7,0.3-3.2,0.7-3.2,1.3c0,0.8,0.5,1.1,3.2,1.6
			c15,2.8,23.5,9.2,23.5,21.1c0,18.9-18.5,22.3-63.8,20.9c-8.2-0.3-16.1-0.7-28.1-0.7c-13.4,0-27,1.1-33.3,1.1
			C765.1,428.9,762.7,428,762.7,425.2z M850.7,366.6c0-7.4-5.3-12.7-14.5-12.7c-9.3,0-14.8,3.9-14.8,12.5c0,8.4,5.9,13.4,13.9,13.4
			C845.5,379.8,850.7,374.5,850.7,366.6z M850.7,404c0-8-5.3-13.2-15.4-13.2c-8,0-13.9,5-13.9,13.4c0,8.6,5.5,12.5,14.8,12.5
			C845.5,416.6,850.7,411.4,850.7,404z"/>
		<path class="st1" d="M910.7,385.2c0-27.5,28.8-44.4,65.9-44.4c37.3,0,66.2,16.9,66.2,44.4c0,9.5-2.8,16.7-9.4,22.3
			c-1.1,0.8-1.2,2,0.4,3c2.4,1.5,5.7,2.2,8.2,2.2c5.3,0,9-3.4,9-7.8c0-6.5-3.1-8.9-3.1-11.6c0-2.3,2.3-3.5,6.2-3.5
			c9.4,0,17.4,8.4,17.4,18.5c0,13.9-12,21.3-31.7,21.3c-10,0-15.7-2.2-24.2-5.9c-2-0.9-4.9-0.4-7,0.4c-9.6,3.5-21.5,5.5-32,5.5
			C939.4,429.5,910.7,412.6,910.7,385.2z M981.5,386.5c3.4,0,9.6,1,13.4,1.9c2.6,0.8,3.1,0,3.2-1.3c0.1-1.5,0.1-2.8,0.1-4.6
			c0-22-9.7-29.3-21.7-29.3c-11.7,0-21.5,7.3-21.5,29.3c0,5,0.3,8.2,1.1,11.9c0.5,1.9,2.6,1.9,3.8,0.5
			C965.5,389.1,972.4,386.5,981.5,386.5z M991.9,408.8c0-5.1-5.4-7.4-11.5-7.4c-6.6,0-11.5,2.3-11.5,7.4c0,5.4,4.9,7.6,11.5,7.6
			C986.5,416.4,991.9,414.2,991.9,408.8z"/>
	</g>
</g>
</svg>
