<?xml version="1.0" encoding="utf-8"?>
<!-- Generator: Adobe Illustrator 27.0.1, SVG Export Plug-In . SVG Version: 6.00 Build 0)  -->
<svg version="1.1" id="Layer_1" xmlns="http://www.w3.org/2000/svg" xmlns:xlink="http://www.w3.org/1999/xlink" x="0px" y="0px"
	 viewBox="0 0 1920 1080" style="enable-background:new 0 0 1920 1080;" xml:space="preserve">
<style type="text/css">
	.st0{fill-rule:evenodd;clip-rule:evenodd;fill:#F2F2F2;}
	.st1{fill:#F2F2F2;}
</style>
<g>
	<g>
		<path class="st0" d="M318.42,474.39c6.81,0,12.32,5.19,12.32,11.59c0,6.4-5.51,11.59-12.32,11.59c-6.8,0-12.32-5.19-12.32-11.59
			C306.1,479.58,311.62,474.39,318.42,474.39L318.42,474.39z M235.64,474.39c6.8,0,12.32,5.19,12.32,11.59
			c0,6.4-5.52,11.59-12.32,11.59c-6.81,0-12.32-5.19-12.32-11.59C223.32,479.58,228.83,474.39,235.64,474.39L235.64,474.39z
			 M407.57,474.39c-6.8,0-12.32,5.19-12.32,11.59c0,6.4,5.52,11.59,12.32,11.59c6.81,0,12.32-5.19,12.32-11.59
			C419.89,479.58,414.38,474.39,407.57,474.39L407.57,474.39z M490.36,474.39c-6.81,0-12.32,5.19-12.32,11.59
			c0,6.4,5.51,11.59,12.32,11.59c6.8,0,12.32-5.19,12.32-11.59C502.68,479.58,497.17,474.39,490.36,474.39L490.36,474.39z
			 M332.31,506.58H167.76c4.77-14.79,7.45-24.21,11.51-38.24l21.67-1.1l66.82-3.41l-66.82-3.41l-20.51-1.04
			c1.53-9.74,3.94-19.2,7.13-28.33C91.97,405.56,109.59,346.5,92,269.8c-9.73-42.45-22.89-61.89-64-64.35
			c113.08-19.32,86.73,120.55,128.57,150.9c14.17,10.28,34.19,15.25,60.05,14.91c12.62,0.26,27-0.5,43.15-2.28
			c-11.77-0.05-22.47-0.47-32.12-1.28c28.25-28.29,66.63-47.51,109.7-52.52v135.01h24.96h1.38h24.96V315.19
			c43.07,5.01,81.46,24.23,109.7,52.52c-9.65,0.8-20.36,1.23-32.13,1.28c16.15,1.78,30.53,2.53,43.15,2.28
			c25.86,0.34,45.88-4.63,60.05-14.91C611.27,326,584.92,186.13,698,205.45c-41.11,2.46-54.27,21.9-64,64.35
			c-17.59,76.7,0.03,135.76-95.56,161.25c3.2,9.13,5.61,18.6,7.14,28.33l-20.51,1.04l-66.82,3.41l66.82,3.41l21.67,1.1
			c4.06,14.03,6.74,23.45,11.51,38.24H393.69c-0.47,28.89,1.76,56.29,7.75,81.64L363,612.12l0,0l0,0l0,0l0,0l-38.44-23.91
			C330.54,562.87,332.78,535.47,332.31,506.58L332.31,506.58L332.31,506.58z"/>
	</g>
	<g>
		<path class="st0" d="M363,676.89c-14.72,0-29.45-1.08-42.53-3.24c2.2,7.74,7.55,14.61,22.02,17.16
			c-5.42,23.84-43.85,27.64-61.8-30.35c16.11-2.25,33.43-2.94,48.29-6.33c9.7-2.22,17.6-2.07,23.89,0.07
			c6.58,2.24,13.7,2.24,20.28,0c6.29-2.14,14.19-2.29,23.89-0.07c14.85,3.39,32.18,4.08,48.29,6.33
			c-17.95,58-56.38,54.19-61.8,30.35c14.47-2.55,19.82-9.42,22.02-17.16C392.45,675.81,377.73,676.89,363,676.89L363,676.89
			L363,676.89z M363,624.52c-34.08-9.35-81.78-3.75-110.87,16.55c-6.18,4.31-13.67,5.93-21.62,4.67
			c-7.96-1.26-14.17-5.05-17.97-10.95c-18.72-29.11-21.71-62.8-30.92-95.12c-2.34-8.23-8.52-15.39-12.79-23.08
			c0.65,19.82,2.83,40.78,3.15,61.86c0.38,25-5.29,36.43,2.78,57.96c0.17-4.51,1.5-9.02,3.99-13.54c0.54,2.37,1.11,4.73,1.72,7.08
			c2.95,19.13-0.97,31.84,8.44,51.32c0.69-4.71,2.24-9,6.19-12.1l0.16,0.3c-1.18,24.59,7.32,47.03,22.67,65.98
			c0.09-7.99,1.67-15.26,6.37-20.97c2.24,28.97,7.2,44.36,35.38,85.64c-0.49-7.73,0.66-15.3,2.54-19.95
			c6.44,17.61,10.56,27.98,33.56,52.41c-0.05-4.26,1.66-7.41,3.93-12.27c1.77,27.43,35.91,42.28,63.29,56.06
			c27.38-13.77,61.52-28.62,63.29-56.06c2.27,4.86,3.98,8,3.93,12.27c23-24.42,27.12-34.8,33.56-52.41
			c1.88,4.65,3.03,12.22,2.54,19.95c28.18-41.28,33.15-56.68,35.38-85.64c4.7,5.72,6.27,12.98,6.37,20.97
			c15.35-18.95,23.85-41.39,22.66-65.98l0.16-0.3c3.96,3.1,5.5,7.39,6.19,12.1c9.41-19.48,5.49-32.18,8.44-51.32
			c0.61-2.35,1.18-4.71,1.72-7.08c2.5,4.51,3.83,9.02,4,13.54c8.07-21.53,2.4-32.96,2.78-57.96c0.32-21.09,2.5-42.04,3.15-61.86
			c-4.26,7.69-10.44,14.85-12.79,23.08c-9.21,32.32-12.2,66.01-30.92,95.12c-3.79,5.9-10.01,9.69-17.96,10.95
			c-7.96,1.26-15.44-0.35-21.63-4.67C444.78,620.78,397.08,615.18,363,624.52L363,624.52L363,624.52z"/>
	</g>
</g>
<g>
	<path class="st1" d="M726.4,502.13c-11.88,0-26.73-0.13-39.82,0.54c-13.63,0.81-16.87,0.13-16.87-3.51
		c0-8.91,25.92,0.81,25.92-39.96c0-40.77-25.78-31.18-25.78-40.09c0-3.51,2.29-3.92,16.74-3.1c7.56,0.54,16.33,0.81,25.38,0.94
		c11.61-0.13,19.57-0.4,25.51-0.94c14.31-0.81,16.74-0.4,16.74,3.1c0,8.91-25.78-0.68-25.38,40.09c0,20.79,8.78,32.53,24.16,32.53
		c30.51,0,26.19-32.8,36.18-32.8c4.59,0,6.21,5.8,6.21,29.43c0,11.74-3.24,16.06-11.88,16.06
		C766.49,504.43,743.14,502.13,726.4,502.13z"/>
	<path class="st1" d="M806.18,459.47c0-27.54,28.89-44.41,66.15-44.41c37.39,0,66.28,16.87,66.28,44.41
		c0,27.4-28.89,44.28-66.28,44.28C835.07,503.75,806.18,486.88,806.18,459.47z M894.2,459.47c0-24.03-9.85-31.99-21.87-31.99
		c-11.88,0-21.6,7.96-21.6,31.99c0,24.16,9.72,31.86,21.6,31.86C884.34,491.33,894.2,483.64,894.2,459.47z"/>
	<path class="st1" d="M978.31,502.13c-11.88,0-18.09,1.21-26.32,1.21c-5.81,0-7.96-0.95-7.96-3.64c0-8.91,25.92,0.54,25.92-40.36
		c0-40.77-25.78-31.18-25.78-40.09c0-2.56,2.02-3.51,7.29-3.51c7.02,0,11.2,1.35,24.84,1.35c13.63,0,25.24-1.35,32.67-1.35
		c9.99,0,9.45,10.53,24.97,28.35c9.18,10.53,19.3,17.68,22.68,17.68c1.62,0,2.29-1.75,2.29-5c0-36.04-22-27.94-22-37.26
		c0-2.83,2.83-3.65,7.02-3.65c5.4,0,11.88,1.22,22.68,1.22c11.47,0,18.49-1.22,22.54-1.22c4.86,0,7.56,1.22,7.56,3.38
		c0,8.91-21.73-0.67-21.73,40.09c0,17.95,1.89,28.75,1.89,37.66c0,4.05-1.75,6.08-5.94,5.8c-2.7-0.13-8.77-0.67-15.12-0.67
		c-7.56,0-16.06,0.67-19.57,0.67c-8.64,0-7.29-9.85-22.14-28.48c-10.8-13.63-20.38-22.41-24.3-22.41c-2.83,0-3.78,4.72-3.78,10.8
		c0,36.04,26.59,28.08,26.59,36.99c0,2.7-2.97,3.92-6.48,3.92C999.37,503.62,990.46,502.13,978.31,502.13z"/>
	<path class="st1" d="M1195.79,497c-5.8,0-16.2,6.75-35.5,6.75c-36.85,0-60.88-18.22-60.88-44.14c0-26.73,23.76-44.14,59.4-44.14
		c23.76,0,31.32,4.72,39.42,4.72c4.46,0,8.91-4.59,13.63-4.59c5,0,9.04,5.26,9.04,17.01c0,11.88-3.78,17.14-9.04,17.01
		c-8.91-0.27-12.55-21.06-40.77-21.06c-16.87,0-28.62,12.01-28.62,31.72c0,18.9,12.15,29.97,24.84,29.97
		c12.28,0,16.33-4.72,16.33-9.85c0.13-4.86-2.97-7.56-7.15-9.58c-4.46-2.16-9.58-3.24-13.5-4.86c-3.24-1.35-4.32-2.83-4.05-4.86
		c0.27-2.29,1.75-3.92,8.37-3.92c9.31,0,19.17,1.48,31.99,1.48c12.55,0,30.24-1.48,37.26-1.48c4.59,0,6.75,1.08,6.75,3.51
		c0,7.69-22.54,3.64-22.54,26.59v2.57c0,4.72,0.81,14.17-5.13,14.17C1209.83,504.02,1201.59,497,1195.79,497z"/>
	<path class="st1" d="M1240.61,499.7c0-8.91,25.92,0.94,25.92-39.82c0-41.17-25.78-31.59-25.78-40.5c0-4.05,4.86-3.78,16.74-3.1
		c7.02,0.4,14.85,0.94,24.03,0.81c9.31-0.14,13.09-0.14,20.11-0.81c10.53-0.94,15.39-0.94,15.39,3.1c0,6.75-18.63,6.75-18.63,21.6
		c0,7.69,6.21,11.47,20.65,11.47c13.9,0,19.57-3.65,19.57-11.47c0-15.66-18.22-14.85-18.22-21.6c0-4.05,4.86-4.05,15.39-3.1
		c7.02,0.67,10.8,0.67,20.11,0.81c9.18,0.13,17.01-0.41,24.03-0.81c11.88-0.67,16.74-0.94,16.74,3.1c0,8.91-25.78-0.68-25.78,40.5
		c0,40.77,25.92,30.91,25.92,39.82c0,4.18-5,4.32-16.87,3.38c-7.16-0.54-14.98-1.08-24.03-0.95c-9.18,0.13-12.96,0.41-20.11,0.95
		c-10.53,0.81-15.52,0.81-15.52-3.38c0-6.75,18.22-7.29,18.22-22.95c0-7.83-5.67-11.47-19.57-11.47c-14.44,0-20.65,3.78-20.65,11.47
		c0,14.85,18.63,16.2,18.63,22.95c0,4.18-4.72,4.18-15.25,3.38c-7.16-0.54-10.93-0.81-20.11-0.95c-9.04,0.13-16.88,0.41-24.03,0.95
		C1245.6,504.02,1240.61,503.89,1240.61,499.7z"/>
	<path class="st1" d="M1400.85,459.47c0-27.54,28.89-44.41,66.15-44.41c37.39,0,66.28,16.87,66.28,44.41
		c0,27.4-28.89,44.28-66.28,44.28C1429.74,503.75,1400.85,486.88,1400.85,459.47z M1488.87,459.47c0-24.03-9.86-31.99-21.87-31.99
		c-11.88,0-21.6,7.96-21.6,31.99c0,24.16,9.72,31.86,21.6,31.86C1479.02,491.33,1488.87,483.64,1488.87,459.47z"/>
	<path class="st1" d="M1625.89,486.2l-2.7-5.8c-2.43-5.13-6.75-13.36-14.04-13.36c-6.48,0-10.26,4.18-10.26,10.67
		c0,15.39,20.25,14.44,20.25,21.73c0,2.7-1.62,3.78-5.94,3.78c-3.38,0-16.2-1.08-32.13-1.08c-13.5,0-28.08,1.08-34.42,1.08
		c-5.81,0-7.96-1.08-7.96-3.78c0-8.91,25.92,0.95,25.92-39.82c0-40.77-25.78-31.18-25.78-40.09c0-2.56,1.89-3.51,7.15-3.51
		c7.02,0,17.01,1.21,31.32,1.21c11.2,0,23.49-0.81,32.94-1.21c50.22-1.89,64.66,6.21,64.66,23.22c0,14.17-9.31,19.71-23.89,21.73
		c-0.95,0.14-1.49,0.4-1.49,1.21s0.41,1.22,1.75,1.48c17.95,3.65,11.21,28.21,20.52,28.21c4.18,0,5.67-4.05,5.67-8.64
		c0-7.15-2.83-12.15-2.83-15.39c0-2.29,2.16-3.51,5.8-3.51c8.77,0,16.2,8.37,16.2,18.49c0,13.91-12.82,20.92-30.37,20.92h-3.51
		C1638.99,503.75,1631.29,497.81,1625.89,486.2z M1631.16,442.73c0-8.5-6.21-14.44-16.47-14.44c-10.39,0-16.33,4.59-16.33,14.31
		c0,9.45,6.34,15.12,15.25,15.12C1624.95,457.72,1631.16,451.91,1631.16,442.73z"/>
	<path class="st1" d="M1733.63,502.13c-11.88,0-18.09,1.21-26.32,1.21c-5.81,0-7.96-0.95-7.96-3.64c0-8.91,25.92,0.54,25.92-40.36
		c0-40.77-25.78-31.18-25.78-40.09c0-2.56,2.02-3.51,7.29-3.51c7.02,0,11.2,1.35,24.84,1.35c13.63,0,25.24-1.35,32.67-1.35
		c9.99,0,9.45,10.53,24.97,28.35c9.18,10.53,19.3,17.68,22.68,17.68c1.62,0,2.29-1.75,2.29-5c0-36.04-22-27.94-22-37.26
		c0-2.83,2.83-3.65,7.02-3.65c5.4,0,11.88,1.22,22.68,1.22c11.47,0,18.49-1.22,22.54-1.22c4.86,0,7.56,1.22,7.56,3.38
		c0,8.91-21.73-0.67-21.73,40.09c0,17.95,1.89,28.75,1.89,37.66c0,4.05-1.75,6.08-5.94,5.8c-2.7-0.13-8.77-0.67-15.12-0.67
		c-7.56,0-16.06,0.67-19.57,0.67c-8.64,0-7.29-9.85-22.14-28.48c-10.8-13.63-20.38-22.41-24.3-22.41c-2.83,0-3.78,4.72-3.78,10.8
		c0,36.04,26.59,28.08,26.59,36.99c0,2.7-2.97,3.92-6.48,3.92C1754.69,503.62,1745.78,502.13,1733.63,502.13z"/>
	<path class="st1" d="M669.7,661.43c0-8.91,25.92,0.95,25.92-39.82s-25.78-31.18-25.78-40.09c0-2.7,2.02-3.51,7.15-3.51
		c7.02,0,18.76,1.22,33.07,1.22c9.85,0,20.65-0.68,29.02-0.95c43.74-1.35,61.15,4.46,61.15,22.27c0,12.01-6.61,17.55-20.79,19.3
		c-2.7,0.27-3.24,0.67-3.24,1.35c0,0.81,0.54,1.08,3.24,1.62c14.98,2.83,23.49,9.18,23.49,21.06c0,18.9-18.49,22.27-63.85,20.92
		c-8.23-0.27-16.06-0.67-28.08-0.67c-13.36,0-27,1.08-33.34,1.08C672.13,665.21,669.7,664.27,669.7,661.43z M757.72,602.84
		c0-7.42-5.27-12.69-14.45-12.69c-9.31,0-14.85,3.91-14.85,12.55c0,8.37,5.94,13.37,13.9,13.37
		C752.45,616.07,757.72,610.81,757.72,602.84z M757.72,640.24c0-7.96-5.27-13.23-15.39-13.23c-7.96,0-13.9,4.99-13.9,13.36
		c0,8.64,5.53,12.55,14.85,12.55C752.45,652.93,757.72,647.66,757.72,640.24z"/>
	<path class="st1" d="M810.23,661.43c0-8.91,25.92,0.95,25.92-39.82s-25.78-31.18-25.78-40.09c0-2.7,2.02-3.51,7.15-3.51
		c7.02,0,18.76,1.22,33.07,1.22c9.85,0,20.65-0.68,29.02-0.95c43.74-1.35,61.15,4.46,61.15,22.27c0,12.01-6.61,17.55-20.79,19.3
		c-2.7,0.27-3.24,0.67-3.24,1.35c0,0.81,0.54,1.08,3.24,1.62c14.98,2.83,23.49,9.18,23.49,21.06c0,18.9-18.49,22.27-63.85,20.92
		c-8.23-0.27-16.06-0.67-28.08-0.67c-13.36,0-27,1.08-33.34,1.08C812.66,665.21,810.23,664.27,810.23,661.43z M898.25,602.84
		c0-7.42-5.27-12.69-14.45-12.69c-9.31,0-14.85,3.91-14.85,12.55c0,8.37,5.94,13.37,13.9,13.37
		C892.98,616.07,898.25,610.81,898.25,602.84z M898.25,640.24c0-7.96-5.27-13.23-15.39-13.23c-7.96,0-13.9,4.99-13.9,13.36
		c0,8.64,5.53,12.55,14.85,12.55C892.98,652.93,898.25,647.66,898.25,640.24z"/>
	<path class="st1" d="M958.19,621.47c0-27.54,28.75-44.41,65.88-44.41c37.26,0,66.15,16.87,66.15,44.41
		c0,9.45-2.83,16.74-9.45,22.27c-1.08,0.81-1.21,2.02,0.41,2.97c2.43,1.48,5.67,2.16,8.24,2.16c5.26,0,9.04-3.38,9.04-7.83
		c0-6.48-3.1-8.91-3.1-11.61c0-2.29,2.29-3.51,6.21-3.51c9.45,0,17.41,8.37,17.41,18.49c0,13.9-12.01,21.33-31.72,21.33
		c-9.99,0-15.66-2.16-24.16-5.94c-2.03-0.94-4.86-0.4-7.02,0.41c-9.58,3.51-21.46,5.54-31.99,5.54
		C986.94,665.75,958.19,648.88,958.19,621.47z M1029.06,622.82c3.38,0,9.58,0.95,13.36,1.89c2.56,0.81,3.1,0,3.24-1.35
		c0.13-1.48,0.13-2.83,0.13-4.59c0-22-9.72-29.29-21.73-29.29c-11.74,0-21.46,7.29-21.46,29.29c0,5,0.27,8.24,1.08,11.88
		c0.54,1.89,2.56,1.89,3.78,0.54C1013,625.39,1019.88,622.82,1029.06,622.82z M1039.46,645.1c0-5.13-5.4-7.42-11.47-7.42
		c-6.62,0-11.47,2.29-11.47,7.42c0,5.4,4.86,7.56,11.47,7.56C1034.06,652.66,1039.46,650.5,1039.46,645.1z"/>
</g>
</svg>
