<?xml version="1.0" encoding="utf-8"?>
<!-- Generator: Adobe Illustrator 27.0.1, SVG Export Plug-In . SVG Version: 6.00 Build 0)  -->
<svg version="1.1" id="Layer_1" xmlns="http://www.w3.org/2000/svg" xmlns:xlink="http://www.w3.org/1999/xlink" x="0px" y="0px"
	 viewBox="0 0 1920 1080" style="enable-background:new 0 0 1920 1080;" xml:space="preserve">
<style type="text/css">
	.st0{fill-rule:evenodd;clip-rule:evenodd;fill:#231F20;}
	.st1{fill-rule:evenodd;clip-rule:evenodd;fill:none;}
	.st2{font-family:'Freehouse-Wide';}
	.st3{font-size:135px;}
</style>
<g>
	<path class="st0" d="M318.42,474.39c6.81,0,12.32,5.19,12.32,11.59c0,6.4-5.51,11.59-12.32,11.59c-6.8,0-12.32-5.19-12.32-11.59
		C306.1,479.58,311.62,474.39,318.42,474.39L318.42,474.39z M235.64,474.39c6.8,0,12.32,5.19,12.32,11.59
		c0,6.4-5.52,11.59-12.32,11.59c-6.81,0-12.32-5.19-12.32-11.59C223.32,479.58,228.83,474.39,235.64,474.39L235.64,474.39z
		 M407.57,474.39c-6.8,0-12.32,5.19-12.32,11.59c0,6.4,5.52,11.59,12.32,11.59c6.81,0,12.32-5.19,12.32-11.59
		C419.89,479.58,414.38,474.39,407.57,474.39L407.57,474.39z M490.36,474.39c-6.81,0-12.32,5.19-12.32,11.59
		c0,6.4,5.51,11.59,12.32,11.59c6.8,0,12.32-5.19,12.32-11.59C502.68,479.58,497.17,474.39,490.36,474.39L490.36,474.39z
		 M332.31,506.58H167.76c4.77-14.79,7.45-24.21,11.51-38.24l21.67-1.1l66.82-3.41l-66.82-3.41l-20.51-1.04
		c1.53-9.74,3.94-19.2,7.13-28.33C91.97,405.56,109.59,346.5,92,269.8c-9.73-42.45-22.89-61.89-64-64.35
		c113.08-19.32,86.73,120.55,128.57,150.9c14.17,10.28,34.19,15.25,60.05,14.91c12.62,0.26,27-0.5,43.15-2.28
		c-11.77-0.05-22.47-0.47-32.12-1.28c28.25-28.29,66.63-47.51,109.7-52.52v135.01h24.96h1.38h24.96V315.19
		c43.07,5.01,81.46,24.23,109.7,52.52c-9.65,0.8-20.36,1.23-32.13,1.28c16.15,1.78,30.53,2.53,43.15,2.28
		c25.86,0.34,45.88-4.63,60.05-14.91C611.27,326,584.92,186.13,698,205.45c-41.11,2.46-54.27,21.9-64,64.35
		c-17.59,76.7,0.03,135.76-95.56,161.25c3.2,9.13,5.61,18.6,7.14,28.33l-20.51,1.04l-66.82,3.41l66.82,3.41l21.67,1.1
		c4.06,14.03,6.74,23.45,11.51,38.24H393.69c-0.47,28.89,1.76,56.29,7.75,81.64L363,612.12l0,0l0,0l0,0l0,0l-38.44-23.91
		C330.54,562.87,332.78,535.47,332.31,506.58L332.31,506.58L332.31,506.58z"/>
	<path class="st0" d="M363,676.89c-14.72,0-29.45-1.08-42.53-3.24c2.2,7.74,7.55,14.61,22.02,17.16
		c-5.42,23.84-43.85,27.64-61.8-30.35c16.11-2.25,33.43-2.94,48.29-6.33c9.7-2.22,17.6-2.07,23.89,0.07c6.58,2.24,13.7,2.24,20.28,0
		c6.29-2.14,14.19-2.29,23.89-0.07c14.85,3.39,32.18,4.08,48.29,6.33c-17.95,58-56.38,54.19-61.8,30.35
		c14.47-2.55,19.82-9.42,22.02-17.16C392.45,675.81,377.73,676.89,363,676.89L363,676.89L363,676.89z M363,624.52
		c-34.08-9.35-81.78-3.75-110.87,16.55c-6.18,4.31-13.67,5.93-21.62,4.67c-7.96-1.26-14.17-5.05-17.97-10.95
		c-18.72-29.11-21.71-62.8-30.92-95.12c-2.34-8.23-8.52-15.39-12.79-23.08c0.65,19.82,2.83,40.78,3.15,61.86
		c0.38,25-5.29,36.43,2.78,57.96c0.17-4.51,1.5-9.02,3.99-13.54c0.54,2.37,1.11,4.73,1.72,7.08c2.95,19.13-0.97,31.84,8.44,51.32
		c0.69-4.71,2.24-9,6.19-12.1l0.16,0.3c-1.18,24.59,7.32,47.03,22.67,65.98c0.09-7.99,1.67-15.26,6.37-20.97
		c2.24,28.97,7.2,44.36,35.38,85.64c-0.49-7.73,0.66-15.3,2.54-19.95c6.44,17.61,10.56,27.98,33.56,52.41
		c-0.05-4.26,1.66-7.41,3.93-12.27c1.77,27.43,35.91,42.28,63.29,56.06c27.38-13.77,61.52-28.62,63.29-56.06
		c2.27,4.86,3.98,8,3.93,12.27c23-24.42,27.12-34.8,33.56-52.41c1.88,4.65,3.03,12.22,2.54,19.95
		c28.18-41.28,33.15-56.68,35.38-85.64c4.7,5.72,6.27,12.98,6.37,20.97c15.35-18.95,23.85-41.39,22.66-65.98l0.16-0.3
		c3.96,3.1,5.5,7.39,6.19,12.1c9.41-19.48,5.49-32.18,8.44-51.32c0.61-2.35,1.18-4.71,1.72-7.08c2.5,4.51,3.83,9.02,4,13.54
		c8.07-21.53,2.4-32.96,2.78-57.96c0.32-21.09,2.5-42.04,3.15-61.86c-4.26,7.69-10.44,14.85-12.79,23.08
		c-9.21,32.32-12.2,66.01-30.92,95.12c-3.79,5.9-10.01,9.69-17.96,10.95c-7.96,1.26-15.44-0.35-21.63-4.67
		C444.78,620.78,397.08,615.18,363,624.52L363,624.52L363,624.52z"/>
</g>
<rect x="667" y="81.46" class="st1" width="1187" height="917.08"/>
<text transform="matrix(1 0 0 1 667 421.1319)"><tspan x="0" y="0" class="st2 st3">Long</tspan><tspan x="570.91" y="0" class="st2 st3">-</tspan><tspan x="0" y="162" class="st2 st3">horn</tspan><tspan x="0" y="324" class="st2 st3">BBQ</tspan></text>
</svg>
