<?xml version="1.0" encoding="utf-8"?>
<!-- Generator: Adobe Illustrator 27.0.1, SVG Export Plug-In . SVG Version: 6.00 Build 0)  -->
<svg version="1.1" id="Layer_1" xmlns="http://www.w3.org/2000/svg" xmlns:xlink="http://www.w3.org/1999/xlink" x="0px" y="0px"
	 viewBox="0 0 1920 1080" style="enable-background:new 0 0 1920 1080;" xml:space="preserve">
<style type="text/css">
	.st0{fill-rule:evenodd;clip-rule:evenodd;fill:#F2F2F2;}
</style>
<g>
	<path class="st0" d="M891.95,439.85c10.39,0,18.81,7.92,18.81,17.69c0,9.77-8.42,17.69-18.81,17.69
		c-10.38,0-18.81-7.92-18.81-17.69C873.14,447.77,881.57,439.85,891.95,439.85L891.95,439.85z M765.57,439.85
		c10.38,0,18.81,7.92,18.81,17.69c0,9.77-8.42,17.69-18.81,17.69c-10.39,0-18.81-7.92-18.81-17.69
		C746.76,447.77,755.18,439.85,765.57,439.85L765.57,439.85z M1028.04,439.85c-10.38,0-18.81,7.92-18.81,17.69
		c0,9.77,8.42,17.69,18.81,17.69c10.39,0,18.81-7.92,18.81-17.69C1046.85,447.77,1038.43,439.85,1028.04,439.85L1028.04,439.85z
		 M1154.43,439.85c-10.39,0-18.81,7.92-18.81,17.69c0,9.77,8.42,17.69,18.81,17.69c10.38,0,18.8-7.92,18.8-17.69
		C1173.23,447.77,1164.81,439.85,1154.43,439.85L1154.43,439.85z M913.15,488.98H661.96c7.28-22.58,11.38-36.95,17.57-58.37
		l33.08-1.68l102.01-5.2l-102.01-5.2l-31.31-1.59c2.33-14.87,6.01-29.32,10.89-43.25C546.26,334.77,573.16,244.6,546.31,127.52
		c-14.86-64.8-34.94-94.48-97.71-98.23c172.62-29.5,132.39,184.02,196.27,230.36c21.63,15.69,52.19,23.28,91.68,22.76
		c19.26,0.39,41.22-0.76,65.86-3.47c-17.97-0.07-34.31-0.72-49.04-1.95c43.12-43.18,101.72-72.53,167.47-80.17v206.11h38.1h2.11
		h38.11V196.82c65.75,7.65,124.35,36.99,167.47,80.17c-14.73,1.22-31.08,1.87-49.05,1.95c24.65,2.71,46.6,3.86,65.87,3.47
		c39.48,0.51,70.04-7.07,91.68-22.76C1339,213.31,1298.78-0.21,1471.4,29.28c-62.76,3.75-82.85,33.43-97.71,98.23
		c-26.85,117.09,0.05,207.25-145.89,246.16c4.88,13.94,8.56,28.39,10.89,43.25l-31.31,1.59l-102.01,5.2l102.01,5.2l33.08,1.68
		c6.19,21.42,10.3,35.79,17.58,58.37h-251.19c-0.72,44.11,2.69,85.93,11.84,124.63L960,650.1l0,0l0,0l0,0l0,0l-58.69-36.49
		C910.45,574.91,913.87,533.08,913.15,488.98L913.15,488.98L913.15,488.98z"/>
	<path class="st0" d="M960,748.98c-22.48,0-44.96-1.65-64.93-4.95c3.37,11.81,11.53,22.31,33.62,26.2
		c-8.28,36.39-66.94,42.2-94.35-46.34c24.59-3.44,51.04-4.48,73.71-9.66c14.81-3.39,26.86-3.16,36.47,0.1
		c10.04,3.41,20.92,3.41,30.96,0c9.6-3.26,21.66-3.49,36.46-0.1c22.67,5.18,49.12,6.22,73.71,9.66
		c-27.41,88.53-86.07,82.73-94.35,46.34c22.09-3.89,30.25-14.38,33.62-26.2C1004.96,747.32,982.48,748.98,960,748.98L960,748.98
		L960,748.98z M960,669.03c-52.03-14.27-124.84-5.72-169.26,25.27c-9.44,6.59-20.86,9.05-33.01,7.12
		c-12.15-1.93-21.64-7.71-27.43-16.71c-28.57-44.44-33.14-95.88-47.2-145.21c-3.58-12.57-13.01-23.49-19.52-35.23
		c0.99,30.26,4.32,62.25,4.81,94.44c0.58,38.17-8.08,55.61,4.24,88.48c0.26-6.89,2.28-13.77,6.1-20.66
		c0.83,3.62,1.7,7.22,2.63,10.81c4.5,29.2-1.48,48.6,12.88,78.34c1.06-7.19,3.41-13.74,9.45-18.47l0.24,0.46
		c-1.81,37.53,11.17,71.79,34.6,100.72c0.14-12.2,2.55-23.29,9.72-32.02c3.41,44.22,10.99,67.72,54.02,130.74
		c-0.74-11.79,1.01-23.35,3.88-30.45c9.83,26.89,16.12,42.72,51.23,80.01c-0.08-6.51,2.54-11.31,6-18.73
		c2.7,41.88,54.82,64.55,96.61,85.57c41.79-21.02,93.92-43.69,96.62-85.57c3.47,7.42,6.08,12.22,6,18.73
		c35.11-37.28,41.4-53.12,51.23-80.01c2.87,7.1,4.62,18.66,3.88,30.45c43.03-63.01,50.6-86.52,54.02-130.74
		c7.17,8.73,9.58,19.81,9.72,32.02c23.43-28.92,36.41-63.18,34.6-100.72l0.24-0.46c6.04,4.73,8.4,11.28,9.45,18.47
		c14.36-29.74,8.38-49.13,12.88-78.34c0.93-3.58,1.8-7.19,2.63-10.81c3.81,6.89,5.84,13.78,6.1,20.66
		c12.32-32.87,3.67-50.31,4.24-88.48c0.49-32.19,3.82-64.18,4.81-94.44c-6.51,11.74-15.94,22.66-19.52,35.23
		c-14.05,49.34-18.62,100.77-47.2,145.21c-5.79,9-15.28,14.79-27.42,16.71c-12.15,1.93-23.57-0.54-33.01-7.12
		C1084.84,663.31,1012.03,654.76,960,669.03L960,669.03L960,669.03z"/>
</g>
</svg>
